<svg xmlns="http://www.w3.org/2000/svg" viewBox="0 0 24 24" role="img" aria-label="Google">
  <path fill="#EA4335" d="M12 4a8 8 0 0 1 5.66 2.34l-2.26 2.26A4.8 4.8 0 0 0 12 7.2a4.8 4.8 0 0 0-4.58 3.34L4.5 8.3A8 8 0 0 1 12 4Z"/>
  <path fill="#FBBC05" d="M7.42 10.54A4.8 4.8 0 0 0 7.2 12c0 .52.08 1.01.22 1.46L4.5 15.7A8 8 0 0 1 4 12c0-1.29.31-2.52.86-3.7l2.56 2.24Z"/>
  <path fill="#34A853" d="M12 20a8 8 0 0 1-7.14-4.3l2.56-2.24A4.8 4.8 0 0 0 12 16.8c1.19 0 2.28-.44 3.11-1.17l2.41 1.87A8 8 0 0 1 12 20Z"/>
  <path fill="#4285F4" d="M20 12c0 .56-.06 1.11-.18 1.64H12v-2.88h4.5c-.22-.77-.66-1.44-1.23-1.96l2.26-2.26A7.96 7.96 0 0 1 20 12Z"/>
  <path fill="#4285F4" d="M19.82 13.64a8 8 0 0 1-2.11 3.86l-2.41-1.87a4.8 4.8 0 0 0 1.2-1.99h3.32Z"/>
</svg>
