<svg xmlns="http://www.w3.org/2000/svg" viewBox="0 0 24 24" role="img" aria-label="Yelp">
  <g fill="#D32323">
    <path d="M12.3 2.2c1.2.1 2.1 1.3 1.8 2.5l-1.1 5.2a1.8 1.8 0 0 1-2.6 1.2 1.8 1.8 0 0 1-.8-2.1l1.1-5.2c.2-1 .9-1.6 1.8-1.6h-.2Z"/>
    <path d="M19.4 7.6c.9.8 1 2.3.1 3.2L15.8 14a1.8 1.8 0 0 1-2.9-.9 1.8 1.8 0 0 1 .5-2.2l3.7-3.2c.7-.6 1.6-.7 2.3-.1Z"/>
    <path d="M20.7 16.6c-.2 1.2-1.4 2-2.6 1.7L13 16.7a1.8 1.8 0 0 1-.6-3.1c.5-.4 1.2-.6 1.8-.4l5.1 1.6c1 .3 1.5 1 1.4 1.8Z"/>
    <path d="M14.7 22c-1.1.4-2.4-.2-2.8-1.4l-1.8-5a1.8 1.8 0 0 1 2.6-2.1c.6.3 1 .8 1.2 1.4l1.8 5c.3.9-.1 1.8-1 2.1Z"/>
    <path d="M5.9 19.4c-.9-.8-1-2.2-.2-3.2l3.5-3.4a1.8 1.8 0 0 1 3 .7c.3.7.1 1.5-.4 2l-3.5 3.4c-.7.7-1.6.8-2.4.5Z"/>
  </g>
</svg>
